<?xml version="1.0" encoding="UTF-8"?>
<svg viewBox="0 0 660 230" width="660" height="230" role="img" aria-label="Switches in series act as AND, switches in parallel act as OR" xmlns="http://www.w3.org/2000/svg" font-family="Helvetica, Arial, sans-serif">
<defs></defs>
<rect x="0.5" y="0.5" width="659" height="229" rx="8" fill="#ffffff" stroke="#e5e7eb"/>
<text x="170" y="28" font-size="11" fill="#1f2937" text-anchor="middle" font-weight="bold">Switches in SERIES: lamp on only if A AND B are closed</text>
<polyline points="50.0,150.0 50.0,70.0 100.0,70.0" fill="none" stroke="#1f2937" stroke-width="2" stroke-linejoin="round"/>
<circle cx="100" cy="70" r="3.5" fill="#1f2937"/>
<circle cx="150" cy="70" r="3.5" fill="#1f2937"/>
<polyline points="100.0,70.0 150.0,70.0" fill="none" stroke="#15803d" stroke-width="2.5" stroke-linejoin="round"/>
<text x="125.0" y="60" font-size="11" fill="#1f2937" text-anchor="middle" font-weight="bold">A</text>
<polyline points="150.0,70.0 190.0,70.0" fill="none" stroke="#1f2937" stroke-width="2" stroke-linejoin="round"/>
<circle cx="190" cy="70" r="3.5" fill="#1f2937"/>
<circle cx="240" cy="70" r="3.5" fill="#1f2937"/>
<polyline points="190.0,70.0 234.0,54.0" fill="none" stroke="#d9480f" stroke-width="2.5" stroke-linejoin="round"/>
<text x="215.0" y="48" font-size="11" fill="#1f2937" text-anchor="middle" font-weight="bold">B</text>
<polyline points="240.0,70.0 290.0,70.0 290.0,115.0" fill="none" stroke="#1f2937" stroke-width="2" stroke-linejoin="round"/>
<circle cx="290" cy="130" r="15" fill="#ffffff" stroke="#1f2937" stroke-width="2"/>
<polyline points="281.0,121.0 299.0,139.0" fill="none" stroke="#1f2937" stroke-width="1.5" stroke-linejoin="round"/>
<polyline points="281.0,139.0 299.0,121.0" fill="none" stroke="#1f2937" stroke-width="1.5" stroke-linejoin="round"/>
<polyline points="290.0,145.0 290.0,190.0 50.0,190.0 50.0,166.0" fill="none" stroke="#1f2937" stroke-width="2" stroke-linejoin="round"/>
<polyline points="36.0,154.0 64.0,154.0" fill="none" stroke="#1f2937" stroke-width="3" stroke-linejoin="round"/>
<polyline points="42.0,162.0 58.0,162.0" fill="none" stroke="#1f2937" stroke-width="3" stroke-linejoin="round"/>
<text x="28" y="160" font-size="12" fill="#1f2937" text-anchor="end" font-weight="bold">+</text>
<text x="170" y="214" font-size="10" fill="#6b7280" text-anchor="middle" font-weight="normal">A closed, B open: no path, lamp OFF</text>
<text x="490" y="28" font-size="11" fill="#1f2937" text-anchor="middle" font-weight="bold">Switches in PARALLEL: lamp on if A OR B is closed</text>
<polyline points="370.0,150.0 370.0,70.0 440.0,70.0" fill="none" stroke="#1f2937" stroke-width="2" stroke-linejoin="round"/>
<circle cx="440" cy="70" r="3.5" fill="#1f2937"/>
<circle cx="490" cy="70" r="3.5" fill="#1f2937"/>
<polyline points="440.0,70.0 490.0,70.0" fill="none" stroke="#15803d" stroke-width="2.5" stroke-linejoin="round"/>
<text x="465.0" y="60" font-size="11" fill="#1f2937" text-anchor="middle" font-weight="bold">A</text>
<polyline points="420.0,70.0 420.0,112.0 440.0,112.0" fill="none" stroke="#1f2937" stroke-width="2" stroke-linejoin="round"/>
<circle cx="440" cy="112" r="3.5" fill="#1f2937"/>
<circle cx="490" cy="112" r="3.5" fill="#1f2937"/>
<polyline points="440.0,112.0 484.0,96.0" fill="none" stroke="#d9480f" stroke-width="2.5" stroke-linejoin="round"/>
<text x="465.0" y="90" font-size="11" fill="#1f2937" text-anchor="middle" font-weight="bold">B</text>
<polyline points="490.0,70.0 520.0,70.0 520.0,112.0 490.0,112.0" fill="none" stroke="#1f2937" stroke-width="2" stroke-linejoin="round"/>
<polyline points="520.0,70.0 610.0,70.0 610.0,115.0" fill="none" stroke="#1f2937" stroke-width="2" stroke-linejoin="round"/>
<circle cx="610" cy="130" r="15" fill="#fde68a" stroke="#1f2937" stroke-width="2"/>
<polyline points="601.0,121.0 619.0,139.0" fill="none" stroke="#1f2937" stroke-width="1.5" stroke-linejoin="round"/>
<polyline points="601.0,139.0 619.0,121.0" fill="none" stroke="#1f2937" stroke-width="1.5" stroke-linejoin="round"/>
<polyline points="610.0,145.0 610.0,190.0 370.0,190.0 370.0,166.0" fill="none" stroke="#1f2937" stroke-width="2" stroke-linejoin="round"/>
<polyline points="356.0,154.0 384.0,154.0" fill="none" stroke="#1f2937" stroke-width="3" stroke-linejoin="round"/>
<polyline points="362.0,162.0 378.0,162.0" fill="none" stroke="#1f2937" stroke-width="3" stroke-linejoin="round"/>
<text x="348" y="160" font-size="12" fill="#1f2937" text-anchor="end" font-weight="bold">+</text>
<text x="490" y="214" font-size="10" fill="#6b7280" text-anchor="middle" font-weight="normal">A closed, B open: path through A, lamp ON</text>
</svg>
