<?xml version="1.0" encoding="UTF-8"?>
<svg viewBox="0 0 660 330" width="660" height="330" role="img" aria-label="1T1C DRAM cell" xmlns="http://www.w3.org/2000/svg" font-family="Helvetica, Arial, sans-serif">
<defs><marker id="dram-b91c1c" viewBox="0 0 10 10" refX="9" refY="5" markerWidth="7" markerHeight="7" orient="auto-start-reverse"><path d="M0,0 L10,5 L0,10 z" fill="#b91c1c"/></marker></defs>
<rect x="0.5" y="0.5" width="659" height="329" rx="8" fill="#ffffff" stroke="#e5e7eb"/>
<polyline points="60.0,90.0 470.0,90.0" fill="none" stroke="#1f2937" stroke-width="2.5" stroke-linejoin="round"/>
<text x="60" y="80" font-size="11" fill="#1f2937" text-anchor="start" font-weight="bold">bit line (BL)</text>
<polyline points="150.0,40.0 150.0,300.0" fill="none" stroke="#2563eb" stroke-width="2.5" stroke-linejoin="round"/>
<text x="150" y="318" font-size="11" fill="#2563eb" text-anchor="middle" font-weight="bold">word line (WL)</text>
<line x1="232" y1="134" x2="232" y2="166" stroke="#d9480f" stroke-width="3"/>
<line x1="225" y1="137" x2="225" y2="163" stroke="#d9480f" stroke-width="2.5"/>
<polyline points="232.0,138.0 250.0,138.0 250.0,90.0" fill="none" stroke="#d9480f" stroke-width="2" stroke-linejoin="round"/>
<polyline points="232.0,162.0 250.0,162.0 250.0,200.0" fill="none" stroke="#d9480f" stroke-width="2" stroke-linejoin="round"/>
<polyline points="225.0,150.0 150.0,150.0" fill="none" stroke="#d9480f" stroke-width="2" stroke-linejoin="round"/>
<circle cx="150" cy="150" r="3.5" fill="#2563eb"/>
<circle cx="250" cy="90" r="3.5" fill="#1f2937"/>
<text x="258" y="154" font-size="10" fill="#d9480f" text-anchor="start" font-weight="bold">access transistor</text>
<circle cx="250" cy="200" r="3.5" fill="#1f2937"/>
<text x="262" y="205" font-size="10" fill="#1f2937" text-anchor="start" font-weight="bold">storage node</text>
<polyline points="230.0,214.0 270.0,214.0" fill="none" stroke="#1f2937" stroke-width="3" stroke-linejoin="round"/>
<polyline points="230.0,222.0 270.0,222.0" fill="none" stroke="#1f2937" stroke-width="3" stroke-linejoin="round"/>
<polyline points="250.0,200.0 250.0,214.0" fill="none" stroke="#1f2937" stroke-width="2" stroke-linejoin="round"/>
<polyline points="250.0,222.0 250.0,244.0" fill="none" stroke="#1f2937" stroke-width="2" stroke-linejoin="round"/>
<text x="280" y="222" font-size="10" fill="#1f2937" text-anchor="start" font-weight="bold">storage capacitor</text>
<polyline points="226.0,244.0 274.0,244.0" fill="none" stroke="#1f2937" stroke-width="2" stroke-linejoin="round"/>
<text x="250" y="260" font-size="10" fill="#6b7280" text-anchor="middle" font-weight="normal">plate</text>
<polyline points="232.0,200.0 190.0,236.0" fill="none" stroke="#b91c1c" stroke-width="1.6" stroke-dasharray="4 3" stroke-linejoin="round" marker-end="url(#dram-b91c1c)"/>
<text x="186" y="252" font-size="10" fill="#b91c1c" text-anchor="end" font-weight="bold">charge leaks away</text>
<rect x="470" y="66" width="150" height="48" rx="6" fill="#dcfce7" stroke="#15803d" stroke-width="1.8"/><text x="545.0" y="87.0" font-size="11" fill="#1f2937" text-anchor="middle" font-weight="bold">sense amplifier</text><text x="545.0" y="103.0" font-size="10" fill="#6b7280" text-anchor="middle" font-weight="normal">reads, then restores</text>
<text x="180" y="286" font-size="10" fill="#6b7280" text-anchor="start" font-weight="normal">read: WL turns on, the cell shares its charge with BL,</text>
<text x="180" y="300" font-size="10" fill="#6b7280" text-anchor="start" font-weight="normal">the sense amp amplifies the small change and writes the value back</text>
</svg>
